<?xml version="1.0" standalone="no"?>
<!DOCTYPE svg PUBLIC "-//W3C//DTD SVG 20010904//EN"
 "http://www.w3.org/TR/2001/REC-SVG-20010904/DTD/svg10.dtd">
<svg version="1.0" xmlns="http://www.w3.org/2000/svg"
 width="80.000000pt" height="379.000000pt" viewBox="0 0 363.000000 379.000000"
 preserveAspectRatio="xMidYMid meet">

<g transform="translate(0.000000,379.000000) scale(0.100000,-0.100000)"
fill="#000000" stroke="none">
<path d="M805 3094 c-48 -125 -89 -236 -92 -248 -3 -19 36 78 148 362 23 57
39 105 36 108 -2 2 -43 -98 -92 -222z"/>
<path d="M2520 3175 l-5 -70 -308 -3 c-169 -1 -306 -6 -303 -10 2 -4 142 -6
310 -4 l306 3 5 22 c4 13 5 48 3 78 l-4 54 -4 -70z"/>
<path d="M2410 2700 l0 -100 -111 0 -111 0 -139 -112 c-77 -62 -139 -116 -139
-120 0 -4 63 44 141 107 l141 115 114 0 114 0 0 105 c0 58 -2 105 -5 105 -3 0
-5 -45 -5 -100z"/>
<path d="M1070 2619 c-29 -85 -56 -160 -59 -168 -2 -8 0 -12 6 -8 6 4 14 19
18 34 3 15 27 83 51 151 25 68 44 128 42 134 -2 5 -28 -59 -58 -143z"/>
<path d="M1900 2592 c0 -4 35 -6 78 -4 119 5 127 9 20 11 -54 0 -98 -2 -98 -7z"/>
<path d="M2572 2048 c-2 -244 -3 -267 -19 -271 -17 -4 -17 -5 0 -6 10 0 20 5
22 12 3 7 4 129 2 272 l-2 260 -3 -267z"/>
<path d="M919 2203 c-5 -16 -17 -47 -26 -70 l-16 -43 -106 -2 -106 -2 104 -3
c64 -2 108 0 115 7 5 5 20 36 32 68 l21 57 209 5 209 6 -213 2 -212 2 -11 -27z"/>
<path d="M1900 2100 c0 -5 -44 -11 -97 -13 l-98 -3 101 -2 c83 -2 103 1 108
13 3 8 1 15 -4 15 -6 0 -10 -4 -10 -10z"/>
<path d="M1525 2090 l-110 -6 107 -2 c63 -1 109 2 113 8 3 6 5 9 3 8 -2 -1
-52 -5 -113 -8z"/>
<path d="M1555 1680 c-44 -44 -74 -80 -68 -80 6 0 19 8 28 18 9 9 41 43 73 74
31 31 54 59 51 62 -3 3 -41 -30 -84 -74z"/>
<path d="M1163 1723 c15 -2 39 -2 55 0 15 2 2 4 -28 4 -30 0 -43 -2 -27 -4z"/>
<path d="M1030 1697 c-110 -42 -211 -177 -225 -298 -3 -30 -8 -64 -11 -76 -2
-13 0 -23 6 -23 5 0 10 23 10 50 0 100 71 240 150 295 21 15 65 37 97 51 72
29 49 31 -27 1z"/>
<path d="M2233 1379 c-6 -19 -36 -105 -67 -191 -31 -87 -53 -158 -51 -158 11
0 137 358 132 373 -1 5 -8 -6 -14 -24z"/>
<path d="M1710 1040 l0 -339 -87 -4 -88 -3 93 -2 92 -2 0 345 c0 190 -2 345
-5 345 -3 0 -5 -153 -5 -340z"/>
<path d="M802 1260 c0 -14 2 -19 5 -12 2 6 2 18 0 25 -3 6 -5 1 -5 -13z"/>
<path d="M1318 1183 c6 -2 18 -2 25 0 6 3 1 5 -13 5 -14 0 -19 -2 -12 -5z"/>
<path d="M817 1139 c4 -13 8 -18 11 -10 2 7 -1 18 -6 23 -8 8 -9 4 -5 -13z"/>
<path d="M2029 813 c-5 -16 -17 -47 -26 -70 l-16 -43 -111 -2 -111 -2 109 -3
c67 -2 113 0 120 7 5 5 20 36 32 68 l21 57 209 5 209 6 -213 2 -212 2 -11 -27z"/>
<path d="M1466 760 c-67 -51 -139 -72 -271 -80 l-120 -7 95 -1 c138 -3 266 35
322 95 28 30 22 28 -26 -7z"/>
<path d="M2583 693 c32 -2 81 -2 110 0 29 2 3 3 -58 3 -60 0 -84 -1 -52 -3z"/>
<path d="M1038 683 c7 -3 16 -2 19 1 4 3 -2 6 -13 5 -11 0 -14 -3 -6 -6z"/>
<path d="M2051 568 c-1 -17 -20 -18 -261 -18 -143 0 -260 -3 -260 -7 0 -11
513 -4 524 7 4 4 6 14 3 22 -4 9 -6 7 -6 -4z"/>
</g>
</svg>
