<?xml version="1.0" standalone="no"?>
<!DOCTYPE svg PUBLIC "-//W3C//DTD SVG 20010904//EN"
 "http://www.w3.org/TR/2001/REC-SVG-20010904/DTD/svg10.dtd">
<svg version="1.0" xmlns="http://www.w3.org/2000/svg"
 width="80.000000pt" height="500.000000pt" viewBox="0 0 500.000000 500.000000"
 preserveAspectRatio="xMidYMid meet">

<g transform="translate(0.000000,500.000000) scale(0.100000,-0.100000)"
fill="#000000" stroke="none">
<path d="M1732 3387 c-91 -233 -89 -227 -72 -237 8 -5 17 -6 21 -2 9 11 139
355 139 368 0 7 -6 14 -14 17 -11 4 -30 -33 -74 -146z"/>
<path d="M2004 3524 c-25 -67 -356 -920 -360 -926 -3 -5 34 -7 82 -6 l87 3 17
50 17 50 165 3 165 2 19 -52 19 -53 83 -3 c45 -2 82 0 82 4 0 8 -360 937 -366
943 -2 2 -7 -5 -10 -15z m65 -527 c28 -82 51 -153 51 -158 0 -5 -49 -9 -111
-9 -102 0 -111 1 -104 18 4 9 24 67 45 127 59 169 62 176 65 173 1 -2 25 -70
54 -151z"/>
<path d="M2440 3055 l0 -465 75 0 75 0 0 98 0 98 119 97 120 97 75 0 76 0 0
75 0 75 -195 0 -195 0 0 115 0 115 233 2 232 3 3 78 3 77 -311 0 -310 0 0
-465z m315 -83 c-6 -4 -37 -30 -70 -57 -33 -27 -68 -55 -77 -63 -17 -14 -18
-11 -18 56 l0 72 87 0 c48 0 83 -4 78 -8z"/>
<path d="M3064 2737 c-2 -7 -3 -98 -2 -202 3 -172 5 -190 21 -193 16 -3 17 12
17 202 0 178 -2 206 -15 206 -9 0 -18 -6 -21 -13z"/>
<path d="M2675 2014 c-99 -256 -181 -469 -183 -474 -2 -6 32 -10 81 -10 l84 0
19 55 18 55 165 -2 164 -3 20 -52 20 -53 83 0 84 0 -10 26 c-88 230 -354 911
-359 916 -3 4 -87 -202 -186 -458z m240 -79 c26 -77 50 -146 53 -152 3 -10
-22 -13 -107 -13 -61 0 -111 3 -111 8 0 20 106 310 111 304 3 -4 27 -70 54
-147z"/>
<path d="M1908 2447 c-196 -67 -318 -243 -318 -457 0 -130 42 -247 118 -331
86 -96 187 -139 326 -139 96 0 159 17 224 62 l42 29 0 -25 c0 -50 8 -56 76
-56 l64 0 0 265 0 265 -155 0 -155 0 0 -75 0 -75 80 0 80 0 0 -65 c0 -59 -3
-69 -27 -92 -40 -38 -125 -74 -188 -80 l-55 -6 -135 133 c-147 146 -146 145
-133 253 14 109 78 196 177 240 94 43 248 21 319 -45 l22 -22 55 54 55 54 -23
24 c-92 99 -299 140 -449 89z m28 -755 c-9 -9 -86 40 -115 74 -29 32 -51 73
-51 92 0 4 38 -31 85 -78 46 -46 83 -86 81 -88z"/>
<path d="M2300 1420 c0 -19 7 -20 200 -20 193 0 200 1 200 20 0 19 -7 20 -200
20 -193 0 -200 -1 -200 -20z"/>
</g>
</svg>
